<svg xmlns="http://www.w3.org/2000/svg" viewBox="81 749.489 17.234 15.511">
  <defs>
    <style>
      .cls-1 {
        fill: #fff;
      }
    </style>
  </defs>
  <g id="twitter-logo-silhouette" transform="translate(80.999 692.048)">
    <g id="Group_1" data-name="Group 1" transform="translate(0.001 57.441)">
      <path id="Path_5" data-name="Path 5" class="cls-1" d="M17.235,59.276a6.532,6.532,0,0,1-2.03.617,3.889,3.889,0,0,0,1.554-2.166,6.723,6.723,0,0,1-2.247.951,3.376,3.376,0,0,0-2.58-1.237A3.741,3.741,0,0,0,8.4,61.357a4.334,4.334,0,0,0,.092.893A9.751,9.751,0,0,1,1.2,58.157a4.213,4.213,0,0,0-.478,1.969A4.041,4.041,0,0,0,2.3,63.386a3.278,3.278,0,0,1-1.6-.492v.049A3.843,3.843,0,0,0,3.53,66.784a3.254,3.254,0,0,1-.932.137,3.075,3.075,0,0,1-.666-.073,3.6,3.6,0,0,0,3.3,2.721A6.668,6.668,0,0,1,.844,71.243,6.791,6.791,0,0,1,0,71.189,9.3,9.3,0,0,0,5.42,72.952c6.5,0,10.059-5.969,10.059-11.145l-.012-.507A7.526,7.526,0,0,0,17.235,59.276Z" transform="translate(-0.001 -57.441)"/>
    </g>
  </g>
</svg>
