<svg xmlns="http://www.w3.org/2000/svg" viewBox="0 0 88.184 15.582">
  <defs>
    <style>
      .cls-1 {
        fill: #fff;
      }
    </style>
  </defs>
  <path id="Path_1" data-name="Path 1" class="cls-1" d="M10.057,7.172v-3.3H.96V18.858H4.385v-5.5H9.95v-3.3H4.385V7.172Zm2.033-3.3V18.858h3.425V3.876Zm14.341,0v8.133L20.652,3.876H18.083V18.858h3.425V10.725l5.779,8.133h2.568V3.876Zm11.986,0H32.424V18.858h5.993a7.255,7.255,0,0,0,7.277-7.491A7.255,7.255,0,0,0,38.417,3.876Zm0,11.687H35.848V7.172h2.568a3.857,3.857,0,0,1,3.981,4.2A3.857,3.857,0,0,1,38.417,15.562Zm12.628,0V12.908H56.4V9.655H51.045V7.172h5.886v-3.3H47.621V18.858h9.418v-3.3Zm13.163,3.6c3.253,0,5.565-1.712,5.565-4.6,0-3.168-2.547-3.96-4.816-4.645-2.333-.706-2.7-1.177-2.7-1.862,0-.6.535-1.134,1.605-1.134a2.626,2.626,0,0,1,2.59,1.734l2.89-1.691a5.811,5.811,0,0,0-5.479-3.382c-2.59,0-5.03,1.67-5.03,4.559,0,2.868,2.183,3.938,4.409,4.559,2.247.621,3.1.985,3.1,1.9,0,.578-.407,1.22-2.033,1.22a3.138,3.138,0,0,1-3.146-2.076l-2.954,1.712C59.05,17.66,61.062,19.158,64.209,19.158Zm7.17-15.282V18.858H74.8V3.876Zm14.341,0v8.133L79.94,3.876H77.372V18.858H80.8V10.725l5.779,8.133h2.568V3.876Z" transform="translate(-0.96 -3.576)"/>
</svg>
